<svg version="1.2" xmlns="http://www.w3.org/2000/svg" viewBox="0 0 356 213" width="356" height="213">
	<title>logo-svg</title>
	<style>
		.s0 { fill: #502d16 } 
	</style>
	<path fill-rule="evenodd" class="s0" d="m111.1 55.1v102.8c0 30.4-24.7 55.2-55.1 55.2-30.5 0-55.2-24.8-55.2-55.2v-102.8c0-30.4 24.7-55.2 55.2-55.2 30.4 0 55.1 24.8 55.1 55.2zm-30.4-44.1c-6.5-3.6-13.9-5.9-21.7-6.4 1.7 2.4 3.3 5.2 3.3 10.1 0 5.6-2.2 8.5-4.1 11-1.7 2.3-3.2 4.2-3.2 8.3 0 4.1 1.5 6.1 3.2 8.3 1.9 2.6 4.1 5.5 4.1 11.1 0 2.2-0.3 3.9-0.8 5.3q4.3 0.1 8.3 2c2.3 1 4.3 2.5 6 4.2 0.7-1.2 1.5-2.3 2.2-3.2 1.8-2.3 3.2-4.3 3.2-8.4 0-4-1.4-6-3.2-8.3-1.9-2.5-4-5.4-4-11 0-5.6 2.1-8.5 4-11 1.8-2.3 3.2-4.3 3.2-8.4q0-2-0.5-3.6zm-61.3 120.9c-1.6 0-2.9 1.2-2.9 2.8v3c0 18.7 15.3 33.9 33.9 33.9 18.7 0 33.9-15.2 33.9-33.9v-3c0-1.6-1.3-2.8-2.8-2.8-0.1 0-34.9 0-35 0-0.1 0-27.1 0-27.1 0zm87.1 26v-102.8c0-16.8-8.2-31.7-20.8-40.9q0 0.2 0 0.4c0 5.6-2.2 8.5-4.1 11-1.7 2.3-3.2 4.3-3.2 8.3 0 4.1 1.5 6.1 3.2 8.4 1.9 2.5 4.1 5.4 4.1 11 0 5.6-2.2 8.5-4.1 11-1.1 1.5-2.1 2.8-2.6 4.6 6 9.6 6.4 24.4-0.1 38.2-4.2 9-10.5 16-17.5 20.2h20c4.1 0 7.4 3.3 7.4 7.4v2.3c6.8 0.7 12.1 6.4 12.1 13.4 0 3.5-1.5 6.9-4 9.5-2.5 2.5-5.9 3.9-9.5 3.9h-8.8c-2.9 3.1-6.3 5.8-10.1 7.8 12.7 0 25.2 0.1 36.1 0.1 1.3-4.4 2-9 2-13.8zm-74.4-81.5c6.4-9.5 15.4-15.8 24.3-17.4 0.8-1.4 1.4-3.1 1.4-5.7 0-4.1-1.5-6.1-3.2-8.3-1.9-2.6-4.1-5.5-4.1-11.1 0-5.5 2.2-8.4 4.1-11 1.7-2.3 3.2-4.3 3.2-8.3 0-4.1-1.5-6.1-3.2-8.3-0.4-0.6-0.9-1.2-1.3-1.8-5.5 0.3-10.8 1.5-15.8 3.4 0.8 1.7 1.4 3.8 1.4 6.7 0 5.5-2.2 8.4-4.1 11-1.7 2.3-3.2 4.2-3.2 8.3 0 4.1 1.5 6.1 3.2 8.3 1.9 2.6 4.1 5.5 4.1 11.1 0 5.5-2.2 8.4-4.1 11-1.7 2.3-3.2 4.3-3.2 8.3 0 1.5 0.1 2.7 0.5 3.8zm-3.6 33.7c1.2 6.2 4 11.1 8.1 14l11.6-15.2c3.2-4.2 4.6-9.7 3.8-14.9-1-7 1-14 5.6-19.4l8.9-10.5q-2.9-1-5.9-1c-10.4 0-21.9 8.7-28.3 22.2-3.9 8.2-5.2 17.1-3.8 24.8zm19.1 17.2c10.1-0.6 21.1-9.1 27.2-22.1 7.2-15.5 5.2-32-4.2-38.9l-9.5 11.3c-3.7 4.3-5.4 10.1-4.5 15.7 0.9 6.5-0.8 13.2-4.8 18.4l-11.1 14.6c1.5 0.6 3.2 0.9 4.9 1zm-42.4-72.2v102.9c0 4.8 0.7 9.4 1.9 13.7 7.6 0 16.1 0 25 0-12-6.5-20.3-19.3-20.3-33.9v-3c0-4.1 3.4-7.4 7.5-7.4h13.9c-4.7-3.7-7.9-9.4-9.2-16.4-1.6-8.7-0.1-18.5 4.1-27.6q0.5-1.2 1.1-2.3c-1.2-1.9-2.3-4.5-2.3-8.4 0-5.6 2.2-8.5 4.1-11 1.7-2.3 3.2-4.3 3.2-8.4 0-4-1.5-6-3.2-8.3-1.9-2.5-4.1-5.4-4.1-11 0-5.6 2.2-8.5 4.1-11 1.7-2.3 3.2-4.3 3.2-8.4 0-2-0.4-3.6-0.9-4.8-16.6 8.3-28 25.5-28 45.3zm50.6 153.4c11 0 21.2-3.5 29.5-9.5-18.9-0.1-40.1-0.1-59-0.1 8.3 6.1 18.5 9.6 29.5 9.6zm47.1-32.3c-28.6-0.1-66.9-0.1-94.3-0.1 2.7 7 6.9 13.2 12.2 18.3 22 0 47.9 0 70 0 5.3-5 9.5-11.2 12.1-18.2zm-20.8-16.9h5.1c2.4 0 4.7-1 6.3-2.6 1.7-1.7 2.6-4 2.6-6.3 0-4.6-3.3-8.3-7.6-8.9-0.7 6.6-2.9 12.6-6.4 17.8zm83.7-79.1l2.8 1.9q-1.2 2.3-2.7 4.2-1.7 1.8-3.9 3.3-2.3 1.6-4.8 2.4-2.4 0.7-5.6 0.7-5.2 0-9.2-1.5-4-1.5-6.5-4.1-2.6-2.7-3.9-6.3-1.3-3.6-1.3-7.9 0-3.9 1.6-7.4 1.5-3.5 4.2-6.1 2.7-2.8 6.8-4.4 3.6-1.5 8.2-1.6l0.1 0.5q-0.8 0.7-2.1 2.2-1.2 1.4-2.4 3.2-1.2 1.8-1.6 3.6-0.3 1.1-0.5 2-0.7 3.1-0.7 7.6 0 6.6 3.1 10.7 3.1 4.1 7.5 4.1 4.1 0 6.5-1.9 2.5-1.9 4.4-5.2zm-11.5-17.8q0.3-1.8 0.1-3.1-0.1-1.3-0.3-2l0.2-1.2 2.5-2.4q3.5 0.4 5.5 1.7 2 1.3 2.8 2.4 0.9 1.1 0.9 1.1 1.1 1.6 1.1 3.5 0 2.7-1.9 4.5-1.9 1.9-4.5 1.9-2.6 0-4.5-1.9-1.9-1.8-1.9-4.5zm31.3-0.4q-0.8 2.1-1.1 5-0.3 2.9-0.3 6 0 4.1 0.3 6.7 0.3 2.8 1.3 5.4 0.8 2.3 2.5 3.7 0.2 0.2 0.6 0.4v0.7q-1.3 0.6-2.8 1.1-1.4 0.5-2.5 0.9-0.1 0-0.1 0-3.8-1.3-6.8-4-2.9-2.5-4.5-6.2-1.6-3.6-1.6-8.2 0-4.5 1.4-8.1 1.5-3.5 4.3-6.2 2.8-2.6 6.9-4 4.1-1.5 9-1.5 0.1 0 0.2 0 0.1 0 0.2 0l0.1 0.5q-1.7 0.8-3 2.1-1.3 1.3-2.1 2.3-0.8 1.1-0.9 1.3 0 0-0.1 0-0.6 1-1 2.1zm26.9 3.4q1.5 3.6 1.5 7.8 0 4.2-1.4 7.8-1.5 3.7-4.2 6.4-3 2.8-7.1 4.3-4.1 1.5-9.4 1.5-0.5 0-1 0-0.4-0.1-1-0.1v-0.5q3.1-1.3 4.8-2.6 1.8-1.3 2.2-1.8 0 0 0-0.1 0.1 0 0.1-0.1 0.1 0 0.1 0 1-1.2 1.6-2.8 0.9-2.1 1.3-5.1 0.3-2.9 0.3-6.9 0-2.7-0.3-6-0.4-3.4-1.1-5.3-1-2.4-2.5-3.8-0.7-0.5-1.8-0.9l-0.2-0.6q1.2-0.8 2.2-1.4 1-0.5 1.7-0.8 0.9 0.1 1.7 0.3 0.7 0.2 1.4 0.5 4.1 1.4 6.9 4 2.8 2.7 4.2 6.2zm32.9-17q-2.7 0-4.6-1.9-1.8-1.9-1.8-4.4 0-2.7 1.8-4.6 1.9-1.8 4.6-1.8 2.5 0 4.4 1.8 1.9 1.9 1.9 4.6 0 2.5-1.9 4.4-1.9 1.9-4.4 1.9zm-12.2 3.6v2.8h10.3v4h-10.3l0.1 26.1q0 1.4 0.6 2.2 0.7 0.8 1.8 1.2 0.8 0.3 2.3 0.5 1.5 0.4 2.7 0.4v2.8h-25.4v-2.8q1 0 1.9-0.1 0.9-0.2 1.6-0.4 1.3-0.5 1.7-1.3 0.4-0.8 0.4-2.2v-30.2q0-4 1.2-7.8 1.2-3.7 3.6-6.7 2.3-2.9 6.2-4.7 3.7-1.7 8.8-1.8v0.6q-1.8 0.8-3 1.7-1.2 0.9-1.9 1.5 0.1 0-0.1 0.1-0.2 0.2-0.3 0.3-0.1 0.1-0.1 0.1-0.7 0.9-1.2 2.4-0.9 2.6-0.9 11.3zm40.6-3.6q-2.6 0-4.5-1.9-1.9-1.9-1.9-4.4 0-2.7 1.9-4.6 1.9-1.8 4.5-1.8 2.6 0 4.5 1.8 1.8 1.9 1.8 4.6 0 2.5-1.8 4.4-1.9 1.9-4.5 1.9zm-12.1 3.6v2.8h10.2v4h-10.2v26.1q0 1.4 0.7 2.2 0.7 0.8 1.8 1.2 0.8 0.3 2.3 0.5 1.5 0.4 2.6 0.4v2.8h-25.3v-2.8q1 0 1.9-0.1 0.9-0.2 1.6-0.4 1.2-0.5 1.6-1.3 0.5-0.8 0.5-2.2v-30.2q0-4 1.2-7.8 1.1-3.7 3.6-6.7 2.3-2.9 6.2-4.7 3.7-1.7 8.7-1.8v0.6q-1.8 0.8-3 1.7-1.2 0.9-1.8 1.5 0.1 0-0.1 0.1-0.2 0.2-0.3 0.3-0.1 0.1-0.1 0.1-0.7 0.9-1.2 2.4-0.9 2.6-0.9 11.3zm48.6 28.6l2.8 2q-1.3 2.1-3.2 4.1-1.8 1.8-4.2 3.2-2.5 1.4-5.1 2.1-2.5 0.7-5.8 0.7-5.5 0-9.6-1.5-4.1-1.6-6.6-4.2-2.7-2.7-3.9-6.3-1.4-3.6-1.4-7.8 0-3.9 1.5-7.4 1.4-3.5 3.9-6.2 2.6-2.7 6.5-4.3 3.8-1.7 8.6-1.7 0.3 0 0.6 0 0.3 0.1 0.5 0.1v0.5q-2.8 1-4.3 2.7-1.5 1.7-2.1 3.1-0.7 1.3-0.7 1.3-0.9 2.8-1 7.5v3.2q0 7.6 2.9 11.7 3 4 9.5 4 3.5 0 6.3-2 2.8-1.9 4.8-4.8zm-12.5-20.7q-0.6-1.6-1.6-2.5v-0.7q1.4-1.3 3-1.9 1.7-0.7 1.8-0.7 0.3 0.1 0.7 0.2 0.4 0.2 0.7 0.3 3.4 1.3 5.7 3.5 2.1 2.1 3.1 5 0.9 3 0.9 6.1v2.5h-22.1v-3.2l8.8-0.2q0-2.1-0.2-4.6-0.2-2.3-0.8-3.8zm54.5 20.7l2.8 2q-1.4 2.1-3.2 4.1-1.8 1.8-4.2 3.2-2.5 1.4-5.1 2.1-2.6 0.7-5.9 0.7-5.5 0-9.6-1.5-4-1.6-6.6-4.2-2.6-2.7-3.9-6.3-1.3-3.6-1.3-7.8 0-3.9 1.4-7.4 1.4-3.5 4-6.2 2.6-2.7 6.4-4.3 3.9-1.7 8.7-1.7 0.2 0 0.6 0 0.3 0.1 0.5 0.1v0.5q-2.8 1-4.3 2.7-1.5 1.7-2.2 3.1-0.6 1.3-0.6 1.3-0.9 2.8-1.1 7.5v3.2q0 7.6 3 11.7 2.9 4 9.4 4 3.5 0 6.3-2 2.8-1.9 4.9-4.8zm-12.5-20.7q-0.6-1.6-1.7-2.5v-0.7q1.5-1.3 3.1-1.9 1.6-0.7 1.7-0.7 0.4 0.1 0.8 0.2 0.4 0.2 0.7 0.3 3.3 1.3 5.6 3.5 2.1 2.1 3.1 5 1 3 1 6.1v2.5h-22.2v-3.2l8.9-0.2q0-2.1-0.2-4.6-0.3-2.3-0.8-3.8zm-185.1 98.7l0.8 0.8v2.3q-2.4 1-5.1 1.8-2.8 0.9-6.7 0.9-5.8 0-8.6-2.9-2.9-2.8-2.9-8.1v-22.9l0.2-4.2v-9.9q0-1.5-0.6-2.7-0.6-1.2-1.6-1.9-0.7-0.4-2.1-0.9-1.5-0.5-2.7-0.5v-2.8l18.6-0.9 0.5 0.5v18.7h10.5v4.2h-10.4v20.8q0 4.5 1.2 6.3 1.2 1.8 4.4 1.8 1 0 2.8-0.1 1-0.1 1.7-0.3zm17.6-24.9q-0.8 2.1-1.1 5-0.3 2.9-0.3 6 0 4 0.3 6.7 0.2 2.7 1.2 5.4 0.9 2.3 2.5 3.6 0.3 0.3 0.7 0.5v0.6q-1.4 0.6-2.8 1.2-1.5 0.5-2.6 0.8 0 0 0 0-3.8-1.3-6.8-3.9-2.9-2.5-4.5-6.2-1.7-3.7-1.7-8.3 0-4.5 1.4-8 1.5-3.5 4.4-6.2 2.7-2.6 6.9-4.1 4-1.4 9-1.4 0.1 0 0.2 0 0.1 0 0.2 0l0.1 0.5q-1.7 0.8-3 2-1.3 1.3-2.1 2.4-0.9 1-0.9 1.3 0 0-0.1 0-0.6 0.9-1 2.1zm26.9 3.4q1.5 3.6 1.5 7.8 0 4.1-1.4 7.8-1.5 3.7-4.3 6.3-2.9 2.8-7 4.3-4.2 1.6-9.4 1.6-0.6 0-1-0.1-0.5 0-1-0.1v-0.5q3.1-1.2 4.8-2.5 1.7-1.4 2.2-1.8 0 0 0-0.1 0.1-0.1 0.1-0.1 0-0.1 0-0.1 1.1-1.1 1.7-2.8 0.8-2.1 1.2-5 0.4-3 0.4-7 0-2.6-0.4-6-0.4-3.3-1.1-5.3-0.9-2.4-2.5-3.7-0.7-0.6-1.8-1l-0.1-0.6q1.2-0.8 2.2-1.3 1-0.6 1.7-0.9 0.9 0.2 1.6 0.4 0.8 0.2 1.5 0.4 4.1 1.5 6.9 4.1 2.8 2.6 4.2 6.2zm23.8 39.4v0.1q1 0.3 2.9 0.7 1.7 0.3 3 0.4v2.8h-27.1v-2.8q1-0.1 2.4-0.3 1.4-0.2 2.2-0.5 1.1-0.3 1.6-1.3 0.4-1 0.4-2.3v-38.3q-0.1-1.3-0.6-2.2-0.4-0.9-1.4-1.6-0.8-0.5-2.1-0.8-1.2-0.3-2.4-0.5v-2.7l18.3-0.9 0.6 0.4v46.1q0 1.3 0.5 2.3 0.6 1 1.7 1.4zm21.7-45.3q4.5 5.4 4.5 14.4 0 7.9-5.3 13.6-5.3 5.6-13.3 5.6-3.6 0-5.8-0.7-1-0.3-1.8-0.7v-3l0.6-0.4q0.7 0.7 1.4 1 1.2 0.4 2.6 0.4 3.7 0 6-3.9 2.2-4 2.2-11.7 0-2.9-0.4-5.4-0.4-2.6-1.5-4.6-1-2.1-2.7-3.2-1.6-1.3-4-1.3-2.2 0-3.6 0.7l-0.6-0.3v-2.5q1.7-1.3 3.6-2.2 2.9-1.4 5.9-1.4 7.7 0 12.2 5.6zm28.9 29.4h-0.1q0.9 0.3 2 0.4v2.7h-23.8v-2.7q1.1-0.1 1.9-0.2 1-0.1 1.6-0.4 1.3-0.5 1.8-1.3 0.4-0.8 0.4-2.2v-21.8q0-1.4-0.6-2.3-0.5-1-1.5-1.6-0.7-0.4-2-0.9-1.4-0.4-2.5-0.4v-2.9l18.3-0.9 0.7 0.6v29.7q0 1.3 0.5 2.2 0.6 1 1.6 1.4 0.7 0.3 1.7 0.6zm-11-41.1q-2.9 0-4.9-2-2.1-2.1-2.1-4.9 0-2.9 2.1-4.9 2-1.9 4.9-1.9 2.8 0 4.8 1.9 2 2 2.1 4.9-0.1 2.8-2.1 4.9-2 2-4.8 2zm53.6 40.1q1.4 0 2.5 0v2.7q-1.6 0.8-3.9 1.3-2.2 0.6-4.7 0.6-4.6 0-6.8-1.4-2.1-1.3-3-3.9l-0.1-20.7v-13.1q0.4 0.1 0.9 0.1 0.5 0 0.9 0.1 3 0.4 5.4 1.8 2.4 1.3 3.8 3.8 1.3 2.5 1.3 6.5 0 4.2-0.2 10-0.1 5.8-0.1 7.6 0 1.8 0.5 2.7 0.5 1 1.5 1.5 0.6 0.3 2 0.4zm-23-17.8q2.4-0.7 4.2-1.3l0.7 0.4v2.7q-1.1 0.4-2.1 0.8-2.1 1-3.4 2-1.4 1.1-2.2 2.6-0.8 1.7-0.8 3.9 0 2.9 1.4 4.3 1.3 1.3 3.2 1.3 2.1 0 3.4-0.9l0.5 0.3v2.8q0 0.1-0.2 0.2-0.1 0.1-0.2 0.2-1.2 1-2.5 1.6-1.8 0.8-3.5 1.2-1.6 0.4-4.5 0.4-4.3 0-7.5-2.6-3-2.5-3-6.7 0-2.5 0.7-4.2 0.6-1.7 1.9-3 1.1-1.2 2.6-2 1.5-0.8 3.2-1.4 3.4-1.3 8.1-2.6zm-8-1.3q-2.6 0-4.5-1.9-1.8-1.9-1.8-4.5 0-1.6 0.7-2.9 0.7-1.3 1.9-2.2 0 0 1.5-1 1.7-1 5.1-1.9 3.5-1 9-1l0.9 0.4v1.3q0 0-1 0.3-1 0.3-2.2 1.1-1.3 0.8-2.2 2.2-1 1.4-1 3.5 0 0.1 0 0.1 0 0.1 0 0.1 0 2.6-1.9 4.5-1.8 1.9-4.5 1.9z"/>
</svg>