<svg xmlns="http://www.w3.org/2000/svg" xmlns:xlink="http://www.w3.org/1999/xlink" width="500" zoomAndPan="magnify" viewBox="0 0 375 225" height="300" preserveAspectRatio="xMidYMid meet" version="1.0"><defs><g/><clipPath id="430b95e987"><path d="M 6.75 5.9375 L 117 5.9375 L 117 218.9375 L 6.75 218.9375 Z M 6.75 5.9375 " clip-rule="nonzero"/></clipPath></defs><rect x="-37.5" width="450" fill="#ffffff" y="-22.5" height="270" fill-opacity="1"/><rect x="-37.5" width="450" fill="#ffffff" y="-22.5" height="270" fill-opacity="1"/><g clip-path="url(#430b95e987)"><path fill="#502d16" d="M 61.96875 5.9375 C 31.535156 5.9375 6.8125 30.660156 6.8125 61.09375 L 6.8125 163.898438 C 6.8125 194.332031 31.535156 219.054688 61.96875 219.054688 C 92.359375 219.054688 117.125 194.332031 117.125 163.898438 L 117.125 61.09375 C 117.125 30.660156 92.359375 5.9375 61.96875 5.9375 Z M 87.246094 20.640625 C 87.246094 24.691406 85.753906 26.652344 84.046875 28.953125 C 82.128906 31.511719 79.957031 34.410156 79.957031 39.992188 C 79.957031 45.578125 82.128906 48.476562 84.046875 51.03125 C 85.753906 53.292969 87.246094 55.253906 87.246094 59.34375 C 87.246094 63.394531 85.753906 65.355469 84.046875 67.65625 C 83.324219 68.636719 82.511719 69.703125 81.832031 70.9375 C 80.082031 69.191406 78.082031 67.742188 75.777344 66.675781 C 73.136719 65.441406 70.367188 64.800781 67.511719 64.714844 C 67.980469 63.265625 68.320312 61.5625 68.320312 59.386719 C 68.320312 53.804688 66.144531 50.90625 64.226562 48.347656 C 62.523438 46.089844 61.03125 44.128906 61.03125 40.035156 C 61.03125 35.945312 62.523438 34.027344 64.226562 31.722656 C 66.144531 29.167969 68.320312 26.269531 68.320312 20.683594 C 68.320312 15.78125 66.65625 12.96875 64.953125 10.625 C 72.835938 11.09375 80.210938 13.355469 86.734375 17.019531 C 87.074219 18.085938 87.246094 19.277344 87.246094 20.640625 Z M 52.464844 137.855469 C 52.550781 137.855469 52.632812 137.855469 52.71875 137.855469 L 87.457031 137.855469 C 89.035156 137.855469 90.3125 139.136719 90.3125 140.710938 L 90.3125 143.738281 C 90.3125 162.40625 75.097656 177.625 56.425781 177.625 C 37.757812 177.625 22.542969 162.40625 22.542969 143.738281 L 22.542969 140.710938 C 22.542969 139.136719 23.820312 137.855469 25.398438 137.855469 L 52.25 137.855469 C 52.292969 137.855469 52.378906 137.855469 52.464844 137.855469 Z M 94.617188 147.53125 C 98.964844 148.128906 102.289062 151.835938 102.289062 156.355469 C 102.289062 158.742188 101.351562 160.957031 99.691406 162.664062 C 98.027344 164.324219 95.769531 165.261719 93.382812 165.261719 L 88.226562 165.261719 C 91.71875 160.105469 93.980469 154.054688 94.617188 147.53125 Z M 37.589844 78.609375 C 37.589844 74.5625 39.078125 72.601562 40.785156 70.296875 C 42.703125 67.742188 44.875 64.84375 44.875 59.257812 C 44.875 53.675781 42.703125 50.777344 40.785156 48.21875 C 39.078125 45.960938 37.589844 44 37.589844 39.90625 C 37.589844 35.816406 39.078125 33.898438 40.785156 31.597656 C 42.703125 29.039062 44.875 26.140625 44.875 20.558594 C 44.875 17.703125 44.28125 15.570312 43.554688 13.90625 C 48.5 11.988281 53.785156 10.796875 59.324219 10.496094 C 59.753906 11.136719 60.179688 11.691406 60.605469 12.289062 C 62.308594 14.546875 63.800781 16.507812 63.800781 20.601562 C 63.800781 24.648438 62.308594 26.609375 60.605469 28.910156 C 58.6875 31.46875 56.511719 34.367188 56.511719 39.949219 C 56.511719 45.535156 58.6875 48.433594 60.605469 50.988281 C 62.308594 53.25 63.800781 55.210938 63.800781 59.300781 C 63.800781 61.945312 63.164062 63.648438 62.394531 65.011719 C 53.53125 66.589844 44.535156 72.898438 38.140625 82.402344 C 37.757812 81.339844 37.589844 80.144531 37.589844 78.609375 Z M 38.3125 91.269531 C 44.664062 77.757812 56.214844 69.105469 66.570312 69.105469 C 68.617188 69.105469 70.578125 69.445312 72.496094 70.128906 L 63.589844 80.613281 C 59.027344 85.984375 57.023438 93.015625 58.046875 99.964844 C 58.816406 105.207031 57.449219 110.664062 54.210938 114.882812 L 42.617188 130.140625 C 38.527344 127.160156 35.710938 122.300781 34.5625 116.117188 C 33.113281 108.359375 34.433594 99.539062 38.3125 91.269531 Z M 51.570312 133.296875 C 49.90625 133.210938 48.242188 132.871094 46.667969 132.316406 L 57.835938 117.652344 C 61.796875 112.453125 63.503906 105.761719 62.566406 99.324219 C 61.714844 93.65625 63.375 87.945312 67.082031 83.597656 L 76.632812 72.34375 C 86.050781 79.207031 88.054688 95.746094 80.851562 111.175781 C 74.714844 124.21875 63.757812 132.699219 53.65625 133.296875 Z M 11.375 61.09375 C 11.375 41.316406 22.796875 24.136719 39.378906 15.824219 C 39.933594 17.019531 40.316406 18.554688 40.316406 20.640625 C 40.316406 24.691406 38.824219 26.652344 37.121094 28.953125 C 35.203125 31.511719 33.027344 34.410156 33.027344 39.992188 C 33.027344 45.578125 35.203125 48.476562 37.121094 51.03125 C 38.824219 53.292969 40.316406 55.253906 40.316406 59.34375 C 40.316406 63.4375 38.824219 65.355469 37.121094 67.65625 C 35.203125 70.214844 33.027344 73.113281 33.027344 78.695312 C 33.027344 82.574219 34.09375 85.175781 35.328125 87.136719 C 34.945312 87.859375 34.5625 88.625 34.222656 89.394531 C 29.957031 98.515625 28.464844 108.320312 30.085938 117.015625 C 31.40625 124.046875 34.5625 129.671875 39.25 133.382812 L 25.355469 133.382812 C 21.261719 133.382812 17.9375 136.707031 17.9375 140.796875 L 17.9375 143.824219 C 17.9375 158.445312 26.164062 171.230469 38.226562 177.710938 C 29.320312 177.710938 20.835938 177.710938 13.207031 177.710938 C 11.972656 173.363281 11.332031 168.757812 11.332031 163.984375 L 11.332031 61.09375 Z M 32.429688 204.945312 C 51.355469 204.945312 72.539062 204.945312 91.464844 204.988281 C 83.152344 210.957031 72.964844 214.492188 61.96875 214.492188 C 50.929688 214.492188 40.742188 210.957031 32.429688 204.945312 Z M 96.921875 200.429688 C 74.882812 200.429688 48.96875 200.386719 26.933594 200.386719 C 21.648438 195.3125 17.46875 189.089844 14.742188 182.140625 C 42.148438 182.140625 80.46875 182.140625 109.066406 182.183594 C 106.425781 189.175781 102.207031 195.355469 96.921875 200.429688 Z M 112.5625 163.898438 C 112.5625 168.671875 111.878906 173.277344 110.644531 177.667969 C 99.691406 177.667969 87.246094 177.625 74.457031 177.625 C 78.25 175.578125 81.660156 172.9375 84.558594 169.78125 L 93.382812 169.78125 C 96.960938 169.78125 100.371094 168.375 102.886719 165.859375 C 105.445312 163.304688 106.851562 159.9375 106.851562 156.355469 C 106.851562 149.40625 101.566406 143.695312 94.789062 142.972656 L 94.789062 140.710938 C 94.789062 136.621094 91.464844 133.296875 87.371094 133.296875 L 67.425781 133.296875 C 74.414062 129.078125 80.722656 122.085938 84.898438 113.136719 C 91.378906 99.28125 90.996094 84.492188 84.984375 74.902344 C 85.539062 73.113281 86.519531 71.789062 87.628906 70.339844 C 89.546875 67.785156 91.71875 64.886719 91.71875 59.300781 C 91.71875 53.71875 89.546875 50.820312 87.628906 48.261719 C 85.921875 46.003906 84.429688 44.042969 84.429688 39.949219 C 84.429688 35.859375 85.921875 33.941406 87.628906 31.640625 C 89.546875 29.082031 91.71875 26.183594 91.71875 20.601562 C 91.71875 20.472656 91.71875 20.34375 91.71875 20.214844 C 104.292969 29.421875 112.476562 44.296875 112.476562 61.050781 L 112.476562 163.898438 Z M 112.5625 163.898438 " fill-opacity="1" fill-rule="nonzero"/></g><g fill="#502d16" fill-opacity="1"><g transform="translate(135.858597, 97.886838)"><g><path d="M 36.109375 -11.703125 L 38.921875 -9.75 C 38.140625 -8.238281 37.226562 -6.859375 36.1875 -5.609375 C 35.09375 -4.367188 33.789062 -3.253906 32.28125 -2.265625 C 30.726562 -1.222656 29.144531 -0.441406 27.53125 0.078125 C 25.914062 0.597656 24.039062 0.859375 21.90625 0.859375 C 18.425781 0.859375 15.363281 0.335938 12.71875 -0.703125 C 10.0625 -1.691406 7.875 -3.066406 6.15625 -4.828125 C 4.445312 -6.597656 3.148438 -8.679688 2.265625 -11.078125 C 1.429688 -13.515625 1.015625 -16.140625 1.015625 -18.953125 C 1.015625 -21.546875 1.535156 -24.015625 2.578125 -26.359375 C 3.617188 -28.703125 5.019531 -30.753906 6.78125 -32.515625 C 8.601562 -34.335938 10.863281 -35.796875 13.5625 -36.890625 C 16.007812 -37.878906 18.765625 -38.425781 21.828125 -38.53125 L 21.90625 -37.984375 C 21.394531 -37.515625 20.707031 -36.796875 19.84375 -35.828125 C 18.988281 -34.867188 18.171875 -33.789062 17.390625 -32.59375 C 16.609375 -31.394531 16.085938 -30.175781 15.828125 -28.9375 C 15.617188 -28.257812 15.4375 -27.609375 15.28125 -26.984375 C 14.8125 -24.898438 14.578125 -22.378906 14.578125 -19.421875 C 14.578125 -15.003906 15.617188 -11.414062 17.703125 -8.65625 C 19.785156 -5.945312 22.28125 -4.59375 25.1875 -4.59375 C 27.945312 -4.59375 30.128906 -5.21875 31.734375 -6.46875 C 33.398438 -7.71875 34.859375 -9.460938 36.109375 -11.703125 Z M 24.640625 -29.484375 C 24.796875 -30.671875 24.820312 -31.707031 24.71875 -32.59375 C 24.613281 -33.476562 24.507812 -34.15625 24.40625 -34.625 L 24.640625 -35.796875 L 27.0625 -38.140625 C 29.445312 -37.878906 31.300781 -37.316406 32.625 -36.453125 C 33.957031 -35.597656 34.894531 -34.804688 35.4375 -34.078125 C 35.988281 -33.347656 36.265625 -32.984375 36.265625 -32.984375 C 36.992188 -31.890625 37.359375 -30.722656 37.359375 -29.484375 C 37.359375 -27.710938 36.734375 -26.203125 35.484375 -24.953125 C 34.234375 -23.703125 32.75 -23.078125 31.03125 -23.078125 C 29.269531 -23.078125 27.765625 -23.703125 26.515625 -24.953125 C 25.265625 -26.203125 24.640625 -27.710938 24.640625 -29.484375 Z M 24.640625 -29.484375 "/></g></g></g><g fill="#502d16" fill-opacity="1"><g transform="translate(175.552087, 97.886838)"><g><path d="M 16.21875 -29.875 C 15.695312 -28.46875 15.332031 -26.800781 15.125 -24.875 C 14.914062 -22.945312 14.8125 -20.945312 14.8125 -18.875 C 14.8125 -16.164062 14.914062 -13.929688 15.125 -12.171875 C 15.28125 -10.347656 15.695312 -8.550781 16.375 -6.78125 C 16.945312 -5.21875 17.78125 -4 18.875 -3.125 C 19.03125 -2.96875 19.238281 -2.8125 19.5 -2.65625 L 19.5 -2.03125 C 18.613281 -1.613281 17.6875 -1.234375 16.71875 -0.890625 C 15.757812 -0.554688 14.914062 -0.257812 14.1875 0 C 14.132812 0 14.109375 0 14.109375 0 C 11.566406 -0.882812 9.304688 -2.210938 7.328125 -3.984375 C 5.398438 -5.640625 3.894531 -7.691406 2.8125 -10.140625 C 1.71875 -12.578125 1.171875 -15.332031 1.171875 -18.40625 C 1.171875 -21.414062 1.640625 -24.09375 2.578125 -26.4375 C 3.566406 -28.78125 5.019531 -30.859375 6.9375 -32.671875 C 8.757812 -34.390625 11.046875 -35.742188 13.796875 -36.734375 C 16.503906 -37.671875 19.519531 -38.140625 22.84375 -38.140625 C 22.894531 -38.140625 22.957031 -38.140625 23.03125 -38.140625 C 23.113281 -38.140625 23.179688 -38.140625 23.234375 -38.140625 L 23.3125 -37.671875 C 22.175781 -37.148438 21.175781 -36.457031 20.3125 -35.59375 C 19.457031 -34.738281 18.753906 -33.957031 18.203125 -33.25 C 17.660156 -32.550781 17.363281 -32.125 17.3125 -31.96875 C 17.3125 -31.96875 17.285156 -31.96875 17.234375 -31.96875 C 16.816406 -31.34375 16.476562 -30.644531 16.21875 -29.875 Z M 43.125 -26.4375 C 44.113281 -24.039062 44.609375 -21.441406 44.609375 -18.640625 C 44.609375 -15.878906 44.140625 -13.28125 43.203125 -10.84375 C 42.210938 -8.394531 40.804688 -6.285156 38.984375 -4.515625 C 37.015625 -2.648438 34.648438 -1.222656 31.890625 -0.234375 C 29.140625 0.804688 26.019531 1.328125 22.53125 1.328125 C 22.164062 1.328125 21.828125 1.3125 21.515625 1.28125 C 21.210938 1.257812 20.878906 1.222656 20.515625 1.171875 L 20.515625 0.703125 C 22.585938 -0.128906 24.195312 -0.988281 25.34375 -1.875 C 26.488281 -2.757812 27.21875 -3.359375 27.53125 -3.671875 C 27.53125 -3.671875 27.53125 -3.695312 27.53125 -3.75 C 27.582031 -3.800781 27.617188 -3.835938 27.640625 -3.859375 C 27.671875 -3.890625 27.6875 -3.90625 27.6875 -3.90625 C 28.363281 -4.675781 28.910156 -5.609375 29.328125 -6.703125 C 29.898438 -8.109375 30.3125 -9.800781 30.5625 -11.78125 C 30.820312 -13.75 30.953125 -16.0625 30.953125 -18.71875 C 30.953125 -20.488281 30.820312 -22.488281 30.5625 -24.71875 C 30.3125 -26.957031 29.953125 -28.726562 29.484375 -30.03125 C 28.859375 -31.632812 28.023438 -32.878906 26.984375 -33.765625 C 26.515625 -34.128906 25.914062 -34.441406 25.1875 -34.703125 L 25.03125 -35.328125 C 25.8125 -35.847656 26.539062 -36.289062 27.21875 -36.65625 C 27.894531 -37.019531 28.46875 -37.304688 28.9375 -37.515625 C 29.507812 -37.410156 30.050781 -37.289062 30.5625 -37.15625 C 31.082031 -37.03125 31.578125 -36.890625 32.046875 -36.734375 C 34.753906 -35.742188 37.046875 -34.390625 38.921875 -32.671875 C 40.785156 -30.910156 42.1875 -28.832031 43.125 -26.4375 Z M 43.125 -26.4375 "/></g></g></g><g fill="#502d16" fill-opacity="1"><g transform="translate(221.406265, 97.886838)"><g><path d="M 30.109375 -43.515625 C 28.335938 -43.515625 26.828125 -44.140625 25.578125 -45.390625 C 24.328125 -46.640625 23.703125 -48.117188 23.703125 -49.828125 C 23.703125 -51.597656 24.328125 -53.109375 25.578125 -54.359375 C 26.828125 -55.609375 28.335938 -56.234375 30.109375 -56.234375 C 31.816406 -56.234375 33.296875 -55.609375 34.546875 -54.359375 C 35.796875 -53.109375 36.421875 -51.597656 36.421875 -49.828125 C 36.421875 -48.117188 35.796875 -46.640625 34.546875 -45.390625 C 33.296875 -44.140625 31.816406 -43.515625 30.109375 -43.515625 Z M 17.9375 -39.84375 L 17.9375 -37.125 L 28.234375 -37.125 L 28.234375 -33.0625 L 17.9375 -33.0625 L 18.015625 -7.015625 C 18.015625 -6.078125 18.222656 -5.320312 18.640625 -4.75 C 19.109375 -4.238281 19.707031 -3.851562 20.4375 -3.59375 C 21.007812 -3.382812 21.785156 -3.203125 22.765625 -3.046875 C 23.753906 -2.835938 24.640625 -2.707031 25.421875 -2.65625 L 25.421875 0.078125 L 0.078125 0.078125 L 0.078125 -2.65625 C 0.753906 -2.707031 1.378906 -2.757812 1.953125 -2.8125 C 2.578125 -2.914062 3.125 -3.046875 3.59375 -3.203125 C 4.414062 -3.515625 4.957031 -3.925781 5.21875 -4.4375 C 5.53125 -5.007812 5.6875 -5.765625 5.6875 -6.703125 L 5.6875 -36.890625 C 5.6875 -39.535156 6.078125 -42.132812 6.859375 -44.6875 C 7.640625 -47.175781 8.835938 -49.410156 10.453125 -51.390625 C 12.015625 -53.316406 14.09375 -54.878906 16.6875 -56.078125 C 19.132812 -57.210938 22.046875 -57.804688 25.421875 -57.859375 L 25.421875 -57.3125 C 24.222656 -56.738281 23.222656 -56.15625 22.421875 -55.5625 C 21.617188 -54.96875 21.007812 -54.488281 20.59375 -54.125 C 20.644531 -54.125 20.59375 -54.070312 20.4375 -53.96875 C 20.332031 -53.863281 20.238281 -53.769531 20.15625 -53.6875 C 20.082031 -53.613281 20.046875 -53.578125 20.046875 -53.578125 C 19.578125 -52.953125 19.1875 -52.171875 18.875 -51.234375 C 18.25 -49.460938 17.9375 -45.664062 17.9375 -39.84375 Z M 17.9375 -39.84375 "/></g></g></g><g fill="#502d16" fill-opacity="1"><g transform="translate(249.870172, 97.886838)"><g><path d="M 30.109375 -43.515625 C 28.335938 -43.515625 26.828125 -44.140625 25.578125 -45.390625 C 24.328125 -46.640625 23.703125 -48.117188 23.703125 -49.828125 C 23.703125 -51.597656 24.328125 -53.109375 25.578125 -54.359375 C 26.828125 -55.609375 28.335938 -56.234375 30.109375 -56.234375 C 31.816406 -56.234375 33.296875 -55.609375 34.546875 -54.359375 C 35.796875 -53.109375 36.421875 -51.597656 36.421875 -49.828125 C 36.421875 -48.117188 35.796875 -46.640625 34.546875 -45.390625 C 33.296875 -44.140625 31.816406 -43.515625 30.109375 -43.515625 Z M 17.9375 -39.84375 L 17.9375 -37.125 L 28.234375 -37.125 L 28.234375 -33.0625 L 17.9375 -33.0625 L 18.015625 -7.015625 C 18.015625 -6.078125 18.222656 -5.320312 18.640625 -4.75 C 19.109375 -4.238281 19.707031 -3.851562 20.4375 -3.59375 C 21.007812 -3.382812 21.785156 -3.203125 22.765625 -3.046875 C 23.753906 -2.835938 24.640625 -2.707031 25.421875 -2.65625 L 25.421875 0.078125 L 0.078125 0.078125 L 0.078125 -2.65625 C 0.753906 -2.707031 1.378906 -2.757812 1.953125 -2.8125 C 2.578125 -2.914062 3.125 -3.046875 3.59375 -3.203125 C 4.414062 -3.515625 4.957031 -3.925781 5.21875 -4.4375 C 5.53125 -5.007812 5.6875 -5.765625 5.6875 -6.703125 L 5.6875 -36.890625 C 5.6875 -39.535156 6.078125 -42.132812 6.859375 -44.6875 C 7.640625 -47.175781 8.835938 -49.410156 10.453125 -51.390625 C 12.015625 -53.316406 14.09375 -54.878906 16.6875 -56.078125 C 19.132812 -57.210938 22.046875 -57.804688 25.421875 -57.859375 L 25.421875 -57.3125 C 24.222656 -56.738281 23.222656 -56.15625 22.421875 -55.5625 C 21.617188 -54.96875 21.007812 -54.488281 20.59375 -54.125 C 20.644531 -54.125 20.59375 -54.070312 20.4375 -53.96875 C 20.332031 -53.863281 20.238281 -53.769531 20.15625 -53.6875 C 20.082031 -53.613281 20.046875 -53.578125 20.046875 -53.578125 C 19.578125 -52.953125 19.1875 -52.171875 18.875 -51.234375 C 18.25 -49.460938 17.9375 -45.664062 17.9375 -39.84375 Z M 17.9375 -39.84375 "/></g></g></g><g fill="#502d16" fill-opacity="1"><g transform="translate(278.334079, 97.886838)"><g><path d="M 38.140625 -11.3125 L 40.9375 -9.28125 C 40.050781 -7.875 38.988281 -6.519531 37.75 -5.21875 C 36.550781 -3.976562 35.144531 -2.914062 33.53125 -2.03125 C 31.863281 -1.09375 30.175781 -0.363281 28.46875 0.15625 C 26.75 0.625 24.796875 0.859375 22.609375 0.859375 C 18.921875 0.859375 15.722656 0.335938 13.015625 -0.703125 C 10.316406 -1.742188 8.109375 -3.144531 6.390625 -4.90625 C 4.628906 -6.675781 3.332031 -8.785156 2.5 -11.234375 C 1.613281 -13.617188 1.171875 -16.21875 1.171875 -19.03125 C 1.171875 -21.570312 1.640625 -24.015625 2.578125 -26.359375 C 3.515625 -28.703125 4.835938 -30.78125 6.546875 -32.59375 C 8.265625 -34.363281 10.421875 -35.796875 13.015625 -36.890625 C 15.566406 -38.035156 18.453125 -38.609375 21.671875 -38.609375 C 21.828125 -38.609375 22.007812 -38.59375 22.21875 -38.5625 C 22.425781 -38.539062 22.609375 -38.53125 22.765625 -38.53125 L 22.765625 -37.984375 C 20.898438 -37.304688 19.457031 -36.40625 18.4375 -35.28125 C 17.425781 -34.164062 16.710938 -33.148438 16.296875 -32.234375 C 15.878906 -31.328125 15.671875 -30.875 15.671875 -30.875 C 15.046875 -29.007812 14.679688 -26.515625 14.578125 -23.390625 L 14.578125 -20.203125 C 14.578125 -15.109375 15.566406 -11.207031 17.546875 -8.5 C 19.523438 -5.84375 22.671875 -4.515625 26.984375 -4.515625 C 29.316406 -4.515625 31.421875 -5.164062 33.296875 -6.46875 C 35.171875 -7.769531 36.785156 -9.382812 38.140625 -11.3125 Z M 25.65625 -31.96875 C 25.238281 -33.0625 24.691406 -33.894531 24.015625 -34.46875 L 24.015625 -35.171875 C 24.953125 -36.054688 25.96875 -36.707031 27.0625 -37.125 C 28.15625 -37.539062 28.726562 -37.75 28.78125 -37.75 C 29.039062 -37.695312 29.300781 -37.628906 29.5625 -37.546875 C 29.820312 -37.472656 30.054688 -37.382812 30.265625 -37.28125 C 32.492188 -36.445312 34.363281 -35.273438 35.875 -33.765625 C 37.28125 -32.359375 38.316406 -30.695312 38.984375 -28.78125 C 39.609375 -26.800781 39.921875 -24.769531 39.921875 -22.6875 L 39.921875 -20.203125 L 17.78125 -20.203125 L 17.78125 -23.390625 L 26.671875 -23.546875 C 26.671875 -25.003906 26.59375 -26.539062 26.4375 -28.15625 C 26.28125 -29.707031 26.019531 -30.976562 25.65625 -31.96875 Z M 25.65625 -31.96875 "/></g></g></g><g fill="#502d16" fill-opacity="1"><g transform="translate(320.2891, 97.886838)"><g><path d="M 38.140625 -11.3125 L 40.9375 -9.28125 C 40.050781 -7.875 38.988281 -6.519531 37.75 -5.21875 C 36.550781 -3.976562 35.144531 -2.914062 33.53125 -2.03125 C 31.863281 -1.09375 30.175781 -0.363281 28.46875 0.15625 C 26.75 0.625 24.796875 0.859375 22.609375 0.859375 C 18.921875 0.859375 15.722656 0.335938 13.015625 -0.703125 C 10.316406 -1.742188 8.109375 -3.144531 6.390625 -4.90625 C 4.628906 -6.675781 3.332031 -8.785156 2.5 -11.234375 C 1.613281 -13.617188 1.171875 -16.21875 1.171875 -19.03125 C 1.171875 -21.570312 1.640625 -24.015625 2.578125 -26.359375 C 3.515625 -28.703125 4.835938 -30.78125 6.546875 -32.59375 C 8.265625 -34.363281 10.421875 -35.796875 13.015625 -36.890625 C 15.566406 -38.035156 18.453125 -38.609375 21.671875 -38.609375 C 21.828125 -38.609375 22.007812 -38.59375 22.21875 -38.5625 C 22.425781 -38.539062 22.609375 -38.53125 22.765625 -38.53125 L 22.765625 -37.984375 C 20.898438 -37.304688 19.457031 -36.40625 18.4375 -35.28125 C 17.425781 -34.164062 16.710938 -33.148438 16.296875 -32.234375 C 15.878906 -31.328125 15.671875 -30.875 15.671875 -30.875 C 15.046875 -29.007812 14.679688 -26.515625 14.578125 -23.390625 L 14.578125 -20.203125 C 14.578125 -15.109375 15.566406 -11.207031 17.546875 -8.5 C 19.523438 -5.84375 22.671875 -4.515625 26.984375 -4.515625 C 29.316406 -4.515625 31.421875 -5.164062 33.296875 -6.46875 C 35.171875 -7.769531 36.785156 -9.382812 38.140625 -11.3125 Z M 25.65625 -31.96875 C 25.238281 -33.0625 24.691406 -33.894531 24.015625 -34.46875 L 24.015625 -35.171875 C 24.953125 -36.054688 25.96875 -36.707031 27.0625 -37.125 C 28.15625 -37.539062 28.726562 -37.75 28.78125 -37.75 C 29.039062 -37.695312 29.300781 -37.628906 29.5625 -37.546875 C 29.820312 -37.472656 30.054688 -37.382812 30.265625 -37.28125 C 32.492188 -36.445312 34.363281 -35.273438 35.875 -33.765625 C 37.28125 -32.359375 38.316406 -30.695312 38.984375 -28.78125 C 39.609375 -26.800781 39.921875 -24.769531 39.921875 -22.6875 L 39.921875 -20.203125 L 17.78125 -20.203125 L 17.78125 -23.390625 L 26.671875 -23.546875 C 26.671875 -25.003906 26.59375 -26.539062 26.4375 -28.15625 C 26.28125 -29.707031 26.019531 -30.976562 25.65625 -31.96875 Z M 25.65625 -31.96875 "/></g></g></g><g fill="#502d16" fill-opacity="1"><g transform="translate(135.858597, 169.541103)"><g><path d="M 24.953125 -4.90625 L 25.8125 -4.140625 L 25.8125 -1.875 C 24.195312 -1.195312 22.484375 -0.570312 20.671875 0 C 18.847656 0.570312 16.632812 0.859375 14.03125 0.859375 C 10.132812 0.859375 7.25 -0.101562 5.375 -2.03125 C 3.457031 -3.894531 2.5 -6.597656 2.5 -10.140625 L 2.5 -33.0625 L 2.65625 -37.203125 L 2.65625 -47.1875 C 2.65625 -48.164062 2.472656 -49.046875 2.109375 -49.828125 C 1.691406 -50.660156 1.171875 -51.285156 0.546875 -51.703125 C 0.078125 -52.015625 -0.648438 -52.328125 -1.640625 -52.640625 C -2.628906 -52.953125 -3.515625 -53.132812 -4.296875 -53.1875 L -4.296875 -55.921875 L 14.265625 -56.84375 L 14.8125 -56.3125 L 14.8125 -37.59375 L 25.34375 -37.59375 L 25.34375 -33.453125 L 14.890625 -33.453125 L 14.890625 -12.640625 C 14.890625 -9.671875 15.28125 -7.585938 16.0625 -6.390625 C 16.894531 -5.140625 18.378906 -4.515625 20.515625 -4.515625 C 21.191406 -4.515625 22.125 -4.566406 23.3125 -4.671875 C 23.9375 -4.722656 24.484375 -4.800781 24.953125 -4.90625 Z M 24.953125 -4.90625 "/></g></g></g><g fill="#502d16" fill-opacity="1"><g transform="translate(162.216943, 169.541103)"><g><path d="M 16.21875 -29.875 C 15.695312 -28.46875 15.332031 -26.800781 15.125 -24.875 C 14.914062 -22.945312 14.8125 -20.945312 14.8125 -18.875 C 14.8125 -16.164062 14.914062 -13.929688 15.125 -12.171875 C 15.28125 -10.347656 15.695312 -8.550781 16.375 -6.78125 C 16.945312 -5.21875 17.78125 -4 18.875 -3.125 C 19.03125 -2.96875 19.238281 -2.8125 19.5 -2.65625 L 19.5 -2.03125 C 18.613281 -1.613281 17.6875 -1.234375 16.71875 -0.890625 C 15.757812 -0.554688 14.914062 -0.257812 14.1875 0 C 14.132812 0 14.109375 0 14.109375 0 C 11.566406 -0.882812 9.304688 -2.210938 7.328125 -3.984375 C 5.398438 -5.640625 3.894531 -7.691406 2.8125 -10.140625 C 1.71875 -12.578125 1.171875 -15.332031 1.171875 -18.40625 C 1.171875 -21.414062 1.640625 -24.09375 2.578125 -26.4375 C 3.566406 -28.78125 5.019531 -30.859375 6.9375 -32.671875 C 8.757812 -34.390625 11.046875 -35.742188 13.796875 -36.734375 C 16.503906 -37.671875 19.519531 -38.140625 22.84375 -38.140625 C 22.894531 -38.140625 22.957031 -38.140625 23.03125 -38.140625 C 23.113281 -38.140625 23.179688 -38.140625 23.234375 -38.140625 L 23.3125 -37.671875 C 22.175781 -37.148438 21.175781 -36.457031 20.3125 -35.59375 C 19.457031 -34.738281 18.753906 -33.957031 18.203125 -33.25 C 17.660156 -32.550781 17.363281 -32.125 17.3125 -31.96875 C 17.3125 -31.96875 17.285156 -31.96875 17.234375 -31.96875 C 16.816406 -31.34375 16.476562 -30.644531 16.21875 -29.875 Z M 43.125 -26.4375 C 44.113281 -24.039062 44.609375 -21.441406 44.609375 -18.640625 C 44.609375 -15.878906 44.140625 -13.28125 43.203125 -10.84375 C 42.210938 -8.394531 40.804688 -6.285156 38.984375 -4.515625 C 37.015625 -2.648438 34.648438 -1.222656 31.890625 -0.234375 C 29.140625 0.804688 26.019531 1.328125 22.53125 1.328125 C 22.164062 1.328125 21.828125 1.3125 21.515625 1.28125 C 21.210938 1.257812 20.878906 1.222656 20.515625 1.171875 L 20.515625 0.703125 C 22.585938 -0.128906 24.195312 -0.988281 25.34375 -1.875 C 26.488281 -2.757812 27.21875 -3.359375 27.53125 -3.671875 C 27.53125 -3.671875 27.53125 -3.695312 27.53125 -3.75 C 27.582031 -3.800781 27.617188 -3.835938 27.640625 -3.859375 C 27.671875 -3.890625 27.6875 -3.90625 27.6875 -3.90625 C 28.363281 -4.675781 28.910156 -5.609375 29.328125 -6.703125 C 29.898438 -8.109375 30.3125 -9.800781 30.5625 -11.78125 C 30.820312 -13.75 30.953125 -16.0625 30.953125 -18.71875 C 30.953125 -20.488281 30.820312 -22.488281 30.5625 -24.71875 C 30.3125 -26.957031 29.953125 -28.726562 29.484375 -30.03125 C 28.859375 -31.632812 28.023438 -32.878906 26.984375 -33.765625 C 26.515625 -34.128906 25.914062 -34.441406 25.1875 -34.703125 L 25.03125 -35.328125 C 25.8125 -35.847656 26.539062 -36.289062 27.21875 -36.65625 C 27.894531 -37.019531 28.46875 -37.304688 28.9375 -37.515625 C 29.507812 -37.410156 30.050781 -37.289062 30.5625 -37.15625 C 31.082031 -37.03125 31.578125 -36.890625 32.046875 -36.734375 C 34.753906 -35.742188 37.046875 -34.390625 38.921875 -32.671875 C 40.785156 -30.910156 42.1875 -28.832031 43.125 -26.4375 Z M 43.125 -26.4375 "/></g></g></g><g fill="#502d16" fill-opacity="1"><g transform="translate(208.071122, 169.541103)"><g><path d="M 21.0625 12.953125 L 21.0625 13.015625 C 21.726562 13.273438 22.6875 13.507812 23.9375 13.71875 C 25.132812 13.925781 26.148438 14.054688 26.984375 14.109375 L 26.984375 16.921875 L -0.078125 16.921875 L -0.078125 14.109375 C 0.546875 14.054688 1.328125 13.976562 2.265625 13.875 C 3.203125 13.71875 3.925781 13.5625 4.4375 13.40625 C 5.21875 13.144531 5.765625 12.679688 6.078125 12.015625 C 6.335938 11.390625 6.46875 10.632812 6.46875 9.75 L 6.46875 -28.546875 C 6.414062 -29.378906 6.234375 -30.101562 5.921875 -30.71875 C 5.609375 -31.34375 5.113281 -31.890625 4.4375 -32.359375 C 3.925781 -32.671875 3.253906 -32.929688 2.421875 -33.140625 C 1.585938 -33.347656 0.78125 -33.503906 0 -33.609375 L 0 -36.34375 L 18.25 -37.28125 L 18.875 -36.8125 L 18.875 9.28125 C 18.875 10.164062 19.054688 10.921875 19.421875 11.546875 C 19.785156 12.222656 20.332031 12.691406 21.0625 12.953125 Z M 42.8125 -32.359375 C 45.78125 -28.722656 47.265625 -23.914062 47.265625 -17.9375 C 47.265625 -12.6875 45.519531 -8.160156 42.03125 -4.359375 C 38.5 -0.617188 34.054688 1.25 28.703125 1.25 C 26.304688 1.25 24.351562 1.015625 22.84375 0.546875 C 22.21875 0.335938 21.625 0.101562 21.0625 -0.15625 L 21.0625 -3.125 L 21.671875 -3.515625 C 22.140625 -3.097656 22.609375 -2.785156 23.078125 -2.578125 C 23.859375 -2.265625 24.742188 -2.109375 25.734375 -2.109375 C 28.179688 -2.109375 30.15625 -3.429688 31.65625 -6.078125 C 33.113281 -8.734375 33.84375 -12.632812 33.84375 -17.78125 C 33.84375 -19.65625 33.710938 -21.445312 33.453125 -23.15625 C 33.191406 -24.875 32.695312 -26.410156 31.96875 -27.765625 C 31.289062 -29.117188 30.410156 -30.179688 29.328125 -30.953125 C 28.234375 -31.785156 26.878906 -32.203125 25.265625 -32.203125 C 23.804688 -32.203125 22.609375 -31.96875 21.671875 -31.5 L 21.0625 -31.8125 L 21.0625 -34.3125 C 22.195312 -35.195312 23.390625 -35.925781 24.640625 -36.5 C 26.617188 -37.4375 28.59375 -37.90625 30.5625 -37.90625 C 35.71875 -37.90625 39.800781 -36.054688 42.8125 -32.359375 Z M 42.8125 -32.359375 "/></g></g></g><g fill="#502d16" fill-opacity="1"><g transform="translate(256.654721, 169.541103)"><g><path d="M 23.078125 -2.96875 L 23 -2.96875 C 23.625 -2.757812 24.273438 -2.628906 24.953125 -2.578125 L 24.953125 0.15625 L 1.25 0.15625 L 1.25 -2.578125 C 1.925781 -2.628906 2.550781 -2.679688 3.125 -2.734375 C 3.75 -2.835938 4.289062 -2.96875 4.75 -3.125 C 5.582031 -3.4375 6.15625 -3.875 6.46875 -4.4375 C 6.78125 -4.957031 6.9375 -5.6875 6.9375 -6.625 L 6.9375 -28.46875 C 6.9375 -29.351562 6.726562 -30.101562 6.3125 -30.71875 C 5.945312 -31.394531 5.453125 -31.941406 4.828125 -32.359375 C 4.367188 -32.617188 3.695312 -32.90625 2.8125 -33.21875 C 1.875 -33.476562 1.039062 -33.632812 0.3125 -33.6875 L 0.3125 -36.5 L 18.640625 -37.4375 L 19.265625 -36.890625 L 19.265625 -7.09375 C 19.265625 -6.257812 19.445312 -5.53125 19.8125 -4.90625 C 20.175781 -4.289062 20.695312 -3.828125 21.375 -3.515625 C 21.882812 -3.304688 22.453125 -3.125 23.078125 -2.96875 Z M 12.09375 -44.0625 C 10.164062 -44.0625 8.523438 -44.734375 7.171875 -46.078125 C 5.816406 -47.429688 5.140625 -49.046875 5.140625 -50.921875 C 5.140625 -52.847656 5.816406 -54.472656 7.171875 -55.796875 C 8.523438 -57.117188 10.164062 -57.78125 12.09375 -57.78125 C 13.957031 -57.78125 15.566406 -57.117188 16.921875 -55.796875 C 18.273438 -54.472656 18.953125 -52.847656 18.953125 -50.921875 C 18.953125 -49.046875 18.273438 -47.429688 16.921875 -46.078125 C 15.566406 -44.734375 13.957031 -44.0625 12.09375 -44.0625 Z M 12.09375 -44.0625 "/></g></g></g><g fill="#502d16" fill-opacity="1"><g transform="translate(281.687359, 169.541103)"><g><path d="M 40.703125 -3.984375 C 41.640625 -3.984375 42.472656 -3.984375 43.203125 -3.984375 L 43.203125 -1.25 C 42.109375 -0.726562 40.804688 -0.285156 39.296875 0.078125 C 37.796875 0.492188 36.210938 0.703125 34.546875 0.703125 C 31.484375 0.703125 29.222656 0.234375 27.765625 -0.703125 C 26.359375 -1.585938 25.367188 -2.882812 24.796875 -4.59375 L 24.640625 -25.34375 L 24.640625 -38.453125 C 24.953125 -38.398438 25.265625 -38.359375 25.578125 -38.328125 C 25.890625 -38.304688 26.175781 -38.269531 26.4375 -38.21875 C 28.46875 -37.957031 30.285156 -37.359375 31.890625 -36.421875 C 33.453125 -35.585938 34.703125 -34.335938 35.640625 -32.671875 C 36.523438 -31.015625 36.96875 -28.832031 36.96875 -26.125 C 36.96875 -23.3125 36.914062 -19.984375 36.8125 -16.140625 C 36.707031 -12.242188 36.65625 -9.695312 36.65625 -8.5 C 36.65625 -7.351562 36.8125 -6.46875 37.125 -5.84375 C 37.488281 -5.164062 38.007812 -4.671875 38.6875 -4.359375 C 39.09375 -4.160156 39.765625 -4.035156 40.703125 -3.984375 Z M 17.703125 -21.75 C 19.265625 -22.21875 20.640625 -22.660156 21.828125 -23.078125 L 22.609375 -22.609375 L 22.609375 -19.96875 C 21.835938 -19.65625 21.113281 -19.367188 20.4375 -19.109375 C 19.082031 -18.484375 17.960938 -17.832031 17.078125 -17.15625 C 16.140625 -16.425781 15.410156 -15.539062 14.890625 -14.5 C 14.367188 -13.414062 14.109375 -12.117188 14.109375 -10.609375 C 14.109375 -8.679688 14.550781 -7.273438 15.4375 -6.390625 C 16.320312 -5.503906 17.414062 -5.0625 18.71875 -5.0625 C 20.070312 -5.0625 21.1875 -5.347656 22.0625 -5.921875 L 22.609375 -5.609375 L 22.609375 -2.8125 C 22.554688 -2.757812 22.488281 -2.691406 22.40625 -2.609375 C 22.332031 -2.535156 22.242188 -2.472656 22.140625 -2.421875 C 21.367188 -1.796875 20.539062 -1.273438 19.65625 -0.859375 C 18.457031 -0.335938 17.3125 0.078125 16.21875 0.390625 C 15.125 0.648438 13.617188 0.78125 11.703125 0.78125 C 8.785156 0.78125 6.289062 -0.078125 4.21875 -1.796875 C 2.1875 -3.503906 1.171875 -5.765625 1.171875 -8.578125 C 1.171875 -10.242188 1.40625 -11.625 1.875 -12.71875 C 2.289062 -13.851562 2.914062 -14.863281 3.75 -15.75 C 4.519531 -16.53125 5.398438 -17.207031 6.390625 -17.78125 C 7.378906 -18.300781 8.445312 -18.769531 9.59375 -19.1875 C 11.832031 -20.019531 14.535156 -20.875 17.703125 -21.75 Z M 9.671875 -23.078125 C 7.953125 -23.078125 6.46875 -23.703125 5.21875 -24.953125 C 3.976562 -26.203125 3.359375 -27.6875 3.359375 -29.40625 C 3.359375 -30.488281 3.585938 -31.472656 4.046875 -32.359375 C 4.515625 -33.242188 5.140625 -33.972656 5.921875 -34.546875 C 5.921875 -34.546875 6.453125 -34.867188 7.515625 -35.515625 C 8.585938 -36.171875 10.28125 -36.820312 12.59375 -37.46875 C 14.90625 -38.125 17.910156 -38.453125 21.609375 -38.453125 L 22.453125 -38.0625 L 22.453125 -36.734375 C 22.453125 -36.734375 22.128906 -36.628906 21.484375 -36.421875 C 20.835938 -36.210938 20.097656 -35.847656 19.265625 -35.328125 C 18.429688 -34.804688 17.6875 -34.078125 17.03125 -33.140625 C 16.382812 -32.203125 16.0625 -31.035156 16.0625 -29.640625 C 16.0625 -29.585938 16.0625 -29.546875 16.0625 -29.515625 C 16.0625 -29.492188 16.0625 -29.457031 16.0625 -29.40625 C 16.0625 -27.6875 15.4375 -26.203125 14.1875 -24.953125 C 12.945312 -23.703125 11.441406 -23.078125 9.671875 -23.078125 Z M 9.671875 -23.078125 "/></g></g></g></svg>